<?xml version="1.0" standalone="no"?>
<!DOCTYPE svg PUBLIC "-//W3C//DTD SVG 20010904//EN"
 "http://www.w3.org/TR/2001/REC-SVG-20010904/DTD/svg10.dtd">
<svg version="1.0" xmlns="http://www.w3.org/2000/svg"
 width="980.000000pt" height="984.000000pt" viewBox="0 0 980.000000 984.000000"
 preserveAspectRatio="xMidYMid meet">

<g transform="translate(0.000000,984.000000) scale(0.100000,-0.100000)"
fill="#000000" stroke="none">
<path d="M4665 9823 c-430 -37 -568 -56 -810 -109 -815 -181 -1557 -558 -2185
-1111 -162 -143 -452 -439 -561 -573 -512 -627 -884 -1416 -1033 -2195 -34
-180 -76 -536 -76 -652 0 -11 234 -13 1287 -11 l1288 3 26 130 c82 407 220
723 449 1030 93 125 315 348 440 441 420 314 895 474 1405 474 369 -1 695 -76
1030 -240 440 -215 793 -559 1029 -1004 104 -196 173 -395 230 -666 l33 -155
1199 -3 c1130 -3 1344 0 1371 16 15 9 -14 266 -57 529 -110 656 -364 1311
-728 1868 -363 557 -832 1030 -1387 1399 -378 252 -746 432 -1175 577 -416
140 -734 201 -1295 249 -112 9 -388 11 -480 3z"/>
<path d="M4700 6709 c-533 -60 -1019 -369 -1330 -844 -104 -160 -209 -415
-240 -585 -28 -150 -28 -566 0 -720 24 -140 104 -358 183 -500 229 -413 592
-712 1052 -866 162 -54 266 -67 540 -68 279 -1 332 6 525 71 262 88 446 192
635 360 213 189 335 344 435 548 159 325 186 453 177 840 -6 268 -25 411 -77
566 -71 213 -225 459 -405 648 -381 399 -957 611 -1495 550z m400 -1039 c259
-74 466 -279 550 -545 31 -99 38 -258 16 -358 -61 -271 -243 -486 -501 -589
-80 -32 -80 -33 -265 -33 -216 0 -260 10 -398 95 -145 90 -228 179 -302 327
-61 123 -83 231 -77 383 7 218 66 349 227 510 128 129 233 191 385 226 85 19
268 11 365 -16z"/>
<path d="M5 4558 c29 -383 83 -679 186 -1023 165 -549 452 -1128 773 -1555
216 -289 648 -727 941 -955 796 -619 1786 -979 2792 -1013 973 -34 1875 195
2708 686 336 199 636 434 941 739 414 414 715 833 959 1336 272 561 420 1106
490 1805 l6 62 -1295 0 c-1224 0 -1295 -1 -1300 -17 -3 -10 -12 -61 -21 -113
-41 -232 -98 -409 -200 -615 -183 -373 -484 -716 -830 -947 -133 -88 -368
-200 -540 -257 -255 -84 -378 -101 -735 -101 -255 0 -370 10 -495 41 -551 138
-1018 443 -1339 874 -230 308 -363 611 -441 1004 -14 69 -25 126 -25 128 0 2
-581 3 -1291 3 l-1290 0 6 -82z"/>
</g>
</svg>
